# xmcd
#
# Track frame offsets: 
#        150
#        35482
#        52870
#        75620
#        100182
#        119467
#        137062
#        160975
#        173917
#        191170
#        208297
#        224187
#        247687
#        263832
#        280780
#        297145
#        314662
#
# Disc length: 4423 seconds
#
# Revision: 0
# Processed by: cddbd v1.5.2PL0 Copyright (c) Steve Scherf et al.
# Submitted via: ExactAudioCopy v1.0b3
#
DISCID=04114511
DTITLE=Curtis Mayfield - Best Collection
DYEAR=1900
DGENRE=
TTITLE0=(Don't Worry) If There's A Hell Bellow We're All Gonna Go
TTITLE1=Get Down (single edit)
TTITLE2=Pusherman
TTITLE3=Freddie's Dead
TTITLE4=Give Me Your Love (Love Song)
TTITLE5=Superfly
TTITLE6=Future Shock
TTITLE7=If I Were Only A Child Again
TTITLE8=Kung Fu (single edit)
TTITLE9=Sweet Exorcist
TTITLE10=Mother's Son(single edit)
TTITLE11=So In Love
TTITLE12=Only You Babe (single edit)
TTITLE13=Show Me Love (single edit)
TTITLE14=You Are, You Are
TTITLE15=Gypsy Woman
TTITLE16=People Get Ready
EXTD=
EXTT0=
EXTT1=
EXTT2=
EXTT3=
EXTT4=
EXTT5=
EXTT6=
EXTT7=
EXTT8=
EXTT9=
EXTT10=
EXTT11=
EXTT12=
EXTT13=
EXTT14=
EXTT15=
EXTT16=
PLAYORDER=
